<svg width="95" height="213" viewBox="0 0 95 213" fill="none" xmlns="http://www.w3.org/2000/svg">
<path d="M46.397 207.4L48.168 212.967H65.7413C65.7413 212.967 61.2458 205.459 46.397 207.4Z" fill="black"/>
<path d="M53.2197 94.3212L22.0066 99.5964C22.0066 99.5964 33.2131 157.884 46.2408 207.403L61.9569 207.864L53.2197 94.3212Z" fill="#2D79BA"/>
<path d="M6.95776 206.724L8.92123 213H28.4048C28.4048 213 23.4207 204.533 6.95776 206.724Z" fill="black"/>
<path d="M85.8948 21.2357L86.7408 17.9589C86.7408 17.9589 85.5525 11.6242 92.0772 8.90295C92.0772 8.90295 94.8319 7.98502 94.6017 10.1329C94.3731 12.2817 94.1689 11.4522 93.9076 14.4817C93.6462 17.5114 92.0892 20.2776 90.0675 21.0983L88.2243 24.7728L85.8948 21.2357Z" fill="#FFD6BF"/>
<path d="M6.86719 207.023C6.86719 207.023 14.1885 113.743 23.2816 96.5467L48.9202 96.4238C48.9202 96.4238 48.5258 105.387 45.7089 115.709L22.3175 206.841L6.86719 207.023Z" fill="#095798"/>
<path d="M41.2905 51.7899L60.7134 50.3012L74.7121 49.2285C74.7121 49.2285 80.2247 41.9724 85.0691 34.8787C85.1344 34.7826 85.1982 34.6854 85.2642 34.5881C85.2925 34.5447 85.3207 34.5012 85.349 34.4578C85.4091 34.364 85.471 34.2707 85.5299 34.1751C89.1557 28.4278 90.6246 20.8038 90.6246 20.8038L89.0562 20.0615L86.4545 18.8292C86.4545 18.8292 81.3553 23.7473 79.0246 26.5011C76.1947 29.8433 72.5123 34.8299 72.5123 34.8299C53.562 34.2093 34.9897 31.9221 32.717 33.1203C28.7213 35.2257 23.5909 41.9479 23.5909 41.9479L41.2905 51.7899Z" fill="#FDBD32"/>
<path d="M46.8174 23.0346C46.8174 23.0346 45.8333 26.6008 44.828 33.8865C44.828 33.8865 39.0381 38.8092 36.6287 38.3619C34.536 37.9741 32.0989 31.4369 32.0989 31.4369C32.0989 31.4369 34.4056 28.2152 36.6841 19.0463L46.8174 23.0346Z" fill="#FFC3A2"/>
<path d="M48.2412 26.6459C48.2412 26.6459 36.714 29.0596 35.3172 21.8806C33.9204 14.7033 31.492 10.1822 38.7925 8.33728C46.0933 6.4942 48.0604 8.95528 49.1113 11.2377C50.1622 13.522 51.2036 25.8347 48.2412 26.6459Z" fill="#FFD6BF"/>
<path d="M35.4946 21.9897C35.4946 21.9897 34.813 12.2277 44.8909 10.8953C54.9686 9.56297 49.0899 0.537254 40.2501 0.542723C40.2501 0.542723 41.6925 3.82712 36.3603 5.27794C25.1688 8.31993 34.2426 20.6337 35.4946 21.9897Z" fill="#26264F"/>
<path d="M23.689 108.618C31.5798 108.618 35.0086 102.998 35.0428 102.939L34.6786 102.731C34.6618 102.759 32.1252 105.643 29.387 107.097C26.6149 108.572 23.6415 108.618 23.689 108.618Z" fill="#221E50"/>
<path d="M11.9138 199.008C12.0657 190.542 12.7002 180.572 13.877 170.255C14.0572 168.677 14.252 167.056 14.4559 165.436C14.6813 163.649 14.9203 161.841 15.1665 160.063C15.2512 159.452 15.54 158.776 15.8196 158.125C16.0795 157.518 16.3479 156.891 16.4247 156.365C17.4093 149.61 18.6042 143.472 19.6583 138.057C19.9348 136.637 20.2054 135.249 20.4653 133.884C22.8131 121.564 24.1002 114.575 24.1092 114.506C24.1006 114.575 23.2165 121.595 20.8656 133.933C20.6055 135.297 20.3349 136.687 20.0582 138.108C19.005 143.518 17.8114 149.648 16.8285 156.394C16.7428 156.981 16.461 157.639 16.1893 158.273C15.9223 158.895 15.6465 159.541 15.5707 160.086C15.3245 161.865 15.0858 163.67 14.8607 165.454C14.6568 167.074 14.4624 168.693 14.2826 170.268C13.1072 180.57 12.1784 190.581 12.0265 199.033L11.9138 199.008Z" fill="#2B295E"/>
<path d="M21.8654 99.5178C22.0475 99.5825 29.6931 102.476 47.2619 100.142C51.1585 99.6238 53.0387 99.2426 54.7921 94.438C58.413 82.9154 60.0316 36.8791 59.8395 36.8018C59.912 37.0535 54.4726 33.6927 45.1462 32.2111C44.4514 33.3853 43.0883 34.7698 40.8791 34.831C38.221 34.9029 34.3181 32.8764 32.2334 31.6626C29.6021 31.8658 26.8225 32.2632 23.9138 32.9123C23.6475 32.9699 22.6328 43.4351 21.9475 55.9503C21.7442 59.6671 21.5692 63.5655 21.4527 67.4261C20.9973 82.4137 18.9394 98.4712 21.8654 99.5178Z" fill="#FDBD32"/>
<path d="M21.5862 67.3975C24.3547 68.6871 29.7506 70.6891 29.9801 66.8788C30.2904 61.7404 26.1803 53.4401 24.5518 53.1241C23.6025 52.9396 22.6781 54.4503 22.0733 55.7399C21.8731 59.5156 21.7009 63.4757 21.5862 67.3975Z" fill="#D39205"/>
<path d="M9.39111 92.4447L32.6776 102.731L46.3977 71.8062L23.1111 61.5195L9.39111 92.4447Z" fill="#9AA6E3"/>
<path d="M31.4238 82.9665L32.2497 84.011C32.2497 84.011 37.9091 80.9886 42.4 86.4592C42.4 86.4592 44.0768 88.8364 41.9726 89.252C39.8682 89.6695 40.5951 89.2265 37.6452 89.8736C34.6957 90.5208 31.6166 89.8444 30.2464 88.1418L28.7351 86.2423L31.4238 82.9665Z" fill="#FFD6BF"/>
<path d="M32.3712 31.6615C32.3712 31.6615 20.354 31.7588 18.7617 32.9273C17.1693 34.0959 1.24612 60.274 0.980713 70.3228C0.980713 70.3228 10.8606 80.6741 28.907 86.751L32.5204 83.1283C32.5204 83.1283 18.9155 69.4802 12.428 66.9864C12.428 66.9864 23.162 56.1832 25.521 50.3656C27.8802 44.548 32.3712 31.6615 32.3712 31.6615Z" fill="#FDBD32"/>
<path d="M59.6442 50.5857L74.7062 49.2846C74.7062 49.2846 80.2155 42.0108 85.0594 34.9017C85.1248 34.8053 85.1886 34.708 85.2545 34.6105C85.2828 34.567 85.3111 34.5234 85.3393 34.4799C85.3994 34.3859 85.4613 34.2924 85.5203 34.1966C89.1473 28.4379 90.6347 20.8101 90.6347 20.8101L89.0768 20.0732C84.014 27.0086 73.7679 44.8135 72.3545 45.8124C70.5927 47.0561 58.2002 44.458 58.3826 45.8125C58.516 46.7949 56.724 49.1348 59.6442 50.5857Z" fill="#D39205"/>
</svg>
