<svg width="366" height="233" viewBox="0 0 366 233" fill="none" xmlns="http://www.w3.org/2000/svg">
<path d="M147.199 212.76L148.884 190.782H177.521V232.424H137.092C133.588 231.499 134.958 229.211 136.081 228.183L143.83 222.399C146.862 219.315 146.862 215.073 147.199 212.76Z" fill="#0036B1"/>
<path d="M206.832 212.76L205.148 190.782H176.511V232.424H216.94C220.443 231.499 219.073 229.211 217.95 228.183L210.201 222.399C207.169 219.315 207.169 215.073 206.832 212.76Z" fill="#0036B1"/>
<rect x="0.0859375" y="0.306641" width="365.208" height="188.934" rx="15" fill="#2D79BA"/>
<path d="M147.199 211.218L148.884 189.24H177.521V230.883H137.092C133.588 229.957 134.958 227.67 136.081 226.641L143.83 220.858C146.862 217.773 146.862 213.532 147.199 211.218Z" fill="#2D79BA"/>
<path d="M206.832 211.218L205.148 189.24H176.511V230.883H216.94C220.443 229.957 219.073 227.67 217.95 226.641L210.201 220.858C207.169 217.773 207.169 213.532 206.832 211.218Z" fill="#2D79BA"/>
<path d="M206.647 209.291H147.536C147.536 216.385 144.841 220.215 143.493 221.243H210.538C207.034 219.084 206.484 212.375 206.647 209.291Z" fill="#1B67A7"/>
</svg>
